<svg xmlns="http://www.w3.org/2000/svg" xmlns:xlink="http://www.w3.org/1999/xlink" viewBox="0 0 2725.43107 2000.41606"><defs><style>.cls-1{isolation:isolate;}.cls-2{fill:url(#radial-gradient);}.cls-3{fill:url(#radial-gradient-2);}.cls-4{fill:#af0;mix-blend-mode:color;opacity:0.22;}</style><radialGradient id="radial-gradient" cx="869.10309" cy="1849.18069" r="1984.32222" gradientUnits="userSpaceOnUse"><stop offset="0.1" stop-color="#fff"/><stop offset="0.33" stop-color="#4091ff"/><stop offset="1" stop-color="#002a66"/></radialGradient><radialGradient id="radial-gradient-2" cx="283.46253" cy="2862.88102" r="2349.80378" gradientUnits="userSpaceOnUse"><stop offset="0.77" stop-color="#fff" stop-opacity="0"/><stop offset="0.88" stop-color="#fff" stop-opacity="0.5"/></radialGradient></defs><g class="cls-1"><g id="Layer_2" data-name="Layer 2"><g id="gradients"><path class="cls-2" d="M2309.77844,1321.93083c150.95787-442.85744-26.46594-944.985-447.02291-1187.79363S918.63119-11.26119,610.58449,340.90092C278.38909,202.02262,45.24361,148.57647,5.83387,216.836s123.44941,243.4465,409.819,461.69694c-133.302,391.06089-10.49863,828.29756,309.61874,1092.42417l222.80428-385.90835c-215.48838-142.58241-480.10662-51.8347-424.75958-147.69859,216.684-375.30773,576.73935-215.54611,739.25235-497.02691l162.513-281.48054c89.75353-155.45779,288.19851-305.14908,391.83687-245.31356,103.63836,59.83577,73.22439,306.53977-16.52913,461.99756l-162.513,281.48054c-162.513,281.4808,155.87235,513.41718-60.81165,888.72491-55.347,95.86389-109.06634-178.67615-340.29059-294.00341l-222.80453,385.9086c388.7991,145.16669,828.85913,32.89931,1100.87694-278.07451,332.19515,138.8783,565.34089,192.3247,604.75063,124.06515S2596.148,1540.18127,2309.77844,1321.93083ZM496.621,500.192a1010.3659,1010.3659,0,0,0-51.19377,101.58487c-114.61387-102.87765-172.151-181.44457-150.895-218.26087s118.06517-26.27138,264.46691,21.54841A1010.40818,1010.40818,0,0,0,496.621,500.192Zm1934.278,1116.756c-21.25592,36.8163-118.06542,26.27138-264.46691-21.5484a1002.01214,1002.01214,0,0,0,113.57212-196.71247C2394.618,1501.5648,2452.15484,1580.13172,2430.89892,1616.948Z"/><path class="cls-3" d="M725.27161,1770.95713C405.15424,1506.83052,282.35084,1069.59385,415.65287,678.533,537.852,771.66429,682.55095,872.637,843.62672,976.49431c-115.21944,41.22009-230.17055,104.72894-320.31041,260.85588-55.347,95.86389,209.2712,5.11618,424.75958,147.69859Zm917.54547-333.05022c21.9121,120.39308,24.38753,251.69834-65.75233,407.82528-55.347,95.86389-109.06634-178.67615-340.29059-294.00341l-222.80453,385.9086c388.7991,145.16669,828.85913,32.89931,1100.87694-278.07451C1973.093,1600.30113,1813.29835,1525.47393,1642.81708,1437.90691Z"/><path class="cls-4" d="M725.27161,1770.95713C405.15424,1506.83052,282.35084,1069.59385,415.65287,678.533,537.852,771.66429,682.55095,872.637,843.62672,976.49431c-115.21944,41.22009-230.17055,104.72894-320.31041,260.85588-55.347,95.86389,209.2712,5.11618,424.75958,147.69859Zm917.54547-333.05022c21.9121,120.39308,24.38753,251.69834-65.75233,407.82528-55.347,95.86389-109.06634-178.67615-340.29059-294.00341l-222.80453,385.9086c388.7991,145.16669,828.85913,32.89931,1100.87694-278.07451C1973.093,1600.30113,1813.29835,1525.47393,1642.81708,1437.90691Z"/></g></g></g></svg>